<?xml version="1.0" encoding="utf-8"?>
<!-- Generator: Adobe Illustrator 22.1.0, SVG Export Plug-In . SVG Version: 6.00 Build 0)  -->
<svg version="1.1" xmlns="http://www.w3.org/2000/svg" xmlns:xlink="http://www.w3.org/1999/xlink" x="0px" y="0px"
	 viewBox="0 0 754 754" style="enable-background:new 0 0 754 754;" xml:space="preserve">
<style type="text/css">
	.st0{fill:#2C3A49;}
	.st1{fill:#339933;}
</style>
<g id="Layer_1">
	<g id="Layer_1_1_">
		<g>
			<g>
				<g>
					<path class="st0" d="M4.9,581.4V581c0-22.3,16.9-32.5,41.1-32.5c10.3,0,17.7,1.7,24.9,4.2V551c0-12-7.4-18.6-21.9-18.6
						c-11,0-18.8,2.1-28.2,5.5l-7.2-22.1c11.2-4.9,22.3-8.2,39.6-8.2c15.8,0,27.2,4.2,34.4,11.4c7.6,7.6,11,18.8,11,32.5v59.2h-28
						v-11c-7,7.8-16.7,12.9-30.8,12.9C20.7,612.6,4.9,601.6,4.9,581.4z M71.4,574.7v-5.1c-4.9-2.3-11.4-3.8-18.5-3.8
						c-12.4,0-20,4.9-20,14.1v0.4c0,7.8,6.5,12.4,15.8,12.4C62.2,592.6,71.4,585.2,71.4,574.7z"/>
				</g>
			</g>
			<g>
				<g>
					<path class="st0" d="M118.7,560.3v-0.4c0-29.1,22.3-53.1,53.5-53.1c19.2,0,31.2,6.5,40.7,17.1l-17.7,19
						c-6.5-6.9-12.9-11.2-23.2-11.2c-14.5,0-24.7,12.8-24.7,27.8v0.4c0,15.6,10.1,28.2,25.9,28.2c9.7,0,16.4-4.2,23.4-10.8
						l16.9,17.1c-9.9,10.8-21.3,18.6-41.7,18.6C141.2,613,118.7,589.4,118.7,560.3z"/>
				</g>
			</g>
			<g>
				<g>
					<path class="st0" d="M237.1,581.8v-48.3h-12.2v-24.7h12.2v-26.2H266v26.1h24v24.7h-24V577c0,6.7,2.9,9.9,9.3,9.9
						c5.3,0,10.1-1.3,14.3-3.6v23.2c-6.1,3.6-13.1,5.9-22.8,5.9C249.1,612.4,237.1,605.4,237.1,581.8z"/>
				</g>
			</g>
			<g>
				<g>
					<path class="st0" d="M305.2,581.4V581c0-22.3,16.9-32.5,41.1-32.5c10.3,0,17.7,1.7,24.9,4.2V551c0-12-7.4-18.6-21.9-18.6
						c-11,0-18.8,2.1-28.2,5.5l-7.2-22.1c11.2-4.9,22.3-8.2,39.6-8.2c15.8,0,27.2,4.2,34.4,11.4c7.6,7.6,11,18.8,11,32.5v59.2h-28
						v-11c-7,7.8-16.7,12.9-30.8,12.9C321,612.6,305.2,601.6,305.2,581.4z M371.6,574.7v-5.1c-4.9-2.3-11.4-3.8-18.5-3.8
						c-12.4,0-20,4.9-20,14.1v0.4c0,7.8,6.5,12.4,15.8,12.4C362.5,592.6,371.6,585.2,371.6,574.7z"/>
				</g>
			</g>
			<g>
				<g>
					<path class="st0" d="M569.9,538.6v0.4c0,22.3-16.9,32.5-41.1,32.5c-10.3,0-17.7-1.7-24.9-4.2v1.7c0,12,7.4,18.6,21.9,18.6
						c11,0,18.8-2.1,28.2-5.5l7.2,22.1c-11.2,4.9-22.3,8.2-39.6,8.2c-15.8,0-27.2-4.2-34.5-11.4c-7.6-7.6-11-18.8-11-32.5v-59.2h28
						v11c7-7.8,16.7-12.9,30.8-12.9C554.1,507.4,569.9,518.4,569.9,538.6z M503.5,545.2v5.1c4.9,2.3,11.4,3.8,18.5,3.8
						c12.4,0,20-4.9,20-14.1v-0.4c0-7.8-6.5-12.4-15.8-12.4C512.6,527.3,503.5,534.8,503.5,545.2z"/>
				</g>
			</g>
			<g>
				<g>
					<path class="st0" d="M589.6,597.2l12.4-19c11,8,22.7,12.2,32.2,12.2c8.4,0,12.2-3,12.2-7.6v-0.4c0-6.3-9.9-8.4-21.1-11.8
						c-14.3-4.2-30.5-10.8-30.5-30.6v-0.4c0-20.7,16.7-32.4,37.3-32.4c12.9,0,27,4.4,38.1,11.8l-11,20c-10.1-5.9-20.2-9.5-27.6-9.5
						c-7,0-10.7,3-10.7,7v0.4c0,5.7,9.7,8.4,20.7,12.2c14.3,4.8,30.8,11.6,30.8,30.3v0.4c0,22.7-16.9,32.9-39,32.9
						C619.1,612.6,603.2,607.9,589.6,597.2z"/>
				</g>
			</g>
			<g>
				<g>
					<path class="st0" d="M696,581.8v-48.3h-12.2v-24.7H696v-26.2h28.9v26.1h24v24.7h-24V577c0,6.7,2.9,9.9,9.3,9.9
						c5.3,0,10.1-1.3,14.3-3.6v23.2c-6.1,3.6-13.1,5.9-22.8,5.9C708,612.4,696,605.4,696,581.8z"/>
				</g>
			</g>
		</g>
		<g>
			<g>
				<circle class="st1" cx="371.9" cy="80.7" r="46.8"/>
			</g>
		</g>
		<g>
			<g>
				<path class="st0" d="M500,131.5c-68.3,0-102.3,27.6-118.6,50.4c-0.6,0.8-2.8,3.6-5.5,7.5c-4.7-8.7-10.5-16.5-17.5-23.4
					c-22.5-22.5-56.3-34.4-97.7-34.4c-32.1,0-61.2,6.3-94.2,20.4c-11.4,4.8-16.7,18.1-11.9,29.5c2.3,5.6,6.9,10.1,12.6,12.3
					c5.7,2.2,11.8,2.1,17.4-0.4c25.2-11.3,48.8-16.6,74.5-16.6c38.9,0,85.2,13.6,85.2,78.4v12.6l0.6,25.2v32.7c0,45-42.7,79-99.3,79
					c-36.7,0-73.9-19.4-73.9-56.4v-1.1c0-36,31.8-57.5,85.2-57.5c22.2,0,43.7,2,65.7,6.1l11.3,2.1l0.1-11.5
					c0.1-6.1,0.1-17.1,0.1-25.5v-8l-7.8-1.5c-21.5-4-43-5.9-67.7-5.9c-82.3,0-135.5,40.6-135.5,103.3v1.1
					c0,64.9,62.2,99.9,120.8,99.9c68.3,0,102.3-27.6,118.6-50.4c0.6-0.8,2.7-3.6,5.5-7.5c4.7,8.7,10.5,16.5,17.5,23.4
					c22.5,22.5,56.3,34.4,97.7,34.4c32.1,0,61.2-6.3,94.2-20.4c11.4-4.8,16.7-18.1,11.9-29.5c-2.3-5.6-6.9-10.1-12.6-12.3
					c-5.7-2.2-11.9-2.1-17.4,0.4c-25.2,11.3-48.8,16.6-74.5,16.6c-38.9,0-85.2-13.6-85.2-78.4v-12.6l-0.6-25.2v-32.7
					c0-45,42.7-79,99.3-79c36.7,0,73.9,19.4,73.9,56.4v1.1c0,36-31.8,57.5-85.2,57.5c-22.2,0-43.7-2-65.7-6.1l-11.3-2.1l-0.1,11.5
					c-0.1,6.1-0.1,17.1-0.1,25.5v8l7.8,1.5c21.5,4,43,5.9,67.7,5.9c82.3,0,135.5-40.6,135.5-103.3v-1.1
					C620.9,166.6,558.6,131.5,500,131.5z"/>
			</g>
		</g>
	</g>
	<g id="Layer_2_1_">
	</g>
	<g>
		<g>
			<g>
				<path class="st1" d="M316.1,652.9H304v-8.1h33.1v8.1h-12.2v31.8h-8.8V652.9z"/>
				<path class="st1" d="M362.4,644.8h8.8v15.8h16.2v-15.8h8.8v39.9h-8.8v-16h-16.2v16h-8.8V644.8z"/>
				<path class="st1" d="M424.3,644.8h30.1v7.8H433v8.1h18.8v7.8H433v8.4h21.7v7.8h-30.4L424.3,644.8L424.3,644.8z"/>
				<path class="st1" d="M494.8,644.6h8.1l17.1,40.2h-9.2l-3.7-9h-16.9l-3.7,9h-9L494.8,644.6z M504,668.1l-5.3-13l-5.3,13H504z"/>
				<path class="st1" d="M548.9,652.9h-12.1v-8.1h33.1v8.1h-12.2v31.8h-8.8V652.9z"/>
				<path class="st1" d="M595.2,644.8h30.1v7.8h-21.4v8.1h18.8v7.8h-18.8v8.4h21.7v7.8h-30.4L595.2,644.8L595.2,644.8z"/>
				<path class="st1" d="M651.9,644.8h18.3c5.1,0,9,1.4,11.6,4c2.2,2.2,3.4,5.4,3.4,9.1v0.1c0,6.4-3.5,10.5-8.6,12.4l9.8,14.3h-10.3
					l-8.6-12.8h-0.1h-6.8v12.8h-8.8L651.9,644.8L651.9,644.8z M669.6,664.2c4.3,0,6.7-2.3,6.7-5.6v-0.1c0-3.8-2.6-5.7-6.9-5.7h-8.7
					v11.5h8.9V664.2z"/>
				<path class="st1" d="M242.5,664.4L242.5,664.4c0-11.4,9-20.7,21.3-20.7s21.2,9.2,21.2,20.5v0.1c0,11.4-9,20.6-21.3,20.6
					C251.3,684.9,242.5,675.7,242.5,664.4z M275.7,664.4L275.7,664.4c0-6.9-5-12.6-12.1-12.6s-12,5.6-12,12.4v0.1
					c0,6.8,5,12.5,12.1,12.5C270.8,676.8,275.7,671.2,275.7,664.4z"/>
				<path class="st1" d="M70.5,644.4h30.1v7.8H79.2v8.1H98v7.8H79.2v8.4h21.7v7.8H70.5C70.5,684.3,70.5,644.4,70.5,644.4z"/>
				<path class="st1" d="M127.3,644.4h18.3c5.1,0,9,1.4,11.6,4c2.2,2.2,3.4,5.4,3.4,9.1v0.1c0,6.4-3.5,10.5-8.6,12.4l9.8,14.3h-10.3
					l-8.6-12.8h-0.1H136v12.8h-8.8v-39.9L127.3,644.4L127.3,644.4z M145,663.8c4.3,0,6.7-2.3,6.7-5.6V658c0-3.8-2.6-5.7-6.9-5.7
					h-8.7v11.5H145z"/>
				<g>
					<g id="XMLID_9_">
						<g>
							<path class="st1" d="M205.6,684.3c-6.9,0.7-13.1-1.9-17.2-5.2c-4.2-3.5-6.3-8.3-6.3-14.4c0-6.1,2.4-11.6,7-15.5
								c1.3-1.1,8.4-6.8,18.1-5.3c7,1.1,11.3,5.4,12.7,7c-2.3,2-4.5,4-6.8,6.1c-2.7-3.4-6.7-5.4-10.4-5.1c-3.2-0.2-6.9,2.5-7.1,2.7
								c-0.3,0.3-1.5,1-2.4,2.5c-1.2,1.9-1.8,4.2-1.8,6.9c0,1.8,0.2,6,3.7,9.1c3.6,3.3,9.6,3.2,10.7,3.1c3.3-0.5,5.4-2.4,6.3-3.3
								c1.3-1.4,2.5-3.1,2.6-4.7l-11.8,0.2v-7l21.9-0.1c0.4,4.4-0.5,9.2-2.5,12.9C221.4,675.3,215.9,683.3,205.6,684.3z"/>
						</g>
						<g>
							<path class="st1" d="M222.2,674.2c-0.8,1.2-6.3,9.1-16.6,10.2c-6.9,0.7-13.1-1.9-17.2-5.2c-4.2-3.5-6.3-8.3-6.3-14.4
								c0-6.1,2.4-11.6,7-15.5c1.3-1.1,8.4-6.8,18.1-5.3c7,1.1,11.3,5.4,12.7,7c-2.3,2-4.5,4-6.8,6.1c-2.7-3.4-6.7-5.4-10.4-5.1
								c-3.2-0.2-6.9,2.5-7.1,2.7c-0.3,0.3-1.5,1-2.4,2.5c-1.2,1.9-1.8,4.2-1.8,6.9c0,1.8,0.2,6,3.7,9.1c3.6,3.3,9.6,3.2,10.7,3.1
								c3.3-0.5,5.4-2.4,6.3-3.3c1.3-1.4,2.5-3.1,2.6-4.7l-11.8,0.2v-7l21.9-0.1C225.1,665.7,224.2,670.5,222.2,674.2z"/>
						</g>
					</g>
				</g>
			</g>
		</g>
	</g>
</g>
<g id="Layer_2">
</g>
</svg>
