<?xml version="1.0" encoding="utf-8"?>
<!-- Generator: Adobe Illustrator 22.1.0, SVG Export Plug-In . SVG Version: 6.00 Build 0)  -->
<svg version="1.1" id="Layer_1" xmlns="http://www.w3.org/2000/svg" xmlns:xlink="http://www.w3.org/1999/xlink" x="0px" y="0px"
	 viewBox="0 0 443.5 371.2" style="enable-background:new 0 0 443.5 371.2;" xml:space="preserve">
<style type="text/css">
	.st0{fill:#E83C3F;}
	.st1{fill:#01354A;}
</style>
<path class="st0" d="M35.3,353.4v17.4h-4.8v-17.4h-6.7V349H42v4.4H35.3z M74.3,349v21.9h-4.8v-8.8h-8.9v8.8h-4.8V349h4.8v8.6h8.9
	V349L74.3,349z M104.8,357.7v4.3H94.5v4.6h11.9v4.3H89.8V349h16.5v4.3H94.5v4.4L104.8,357.7z M128.4,348.8h4.4l9.4,22h-5l-2-4.9
	h-9.2l-2,4.9H119L128.4,348.8z M133.4,361.7l-2.9-7.1l-2.9,7.1H133.4z M162.8,353.4v17.4H158v-17.4h-6.7V349h18.1v4.4H162.8z
	 M198.4,357.7v4.3h-10.3v4.6H200v4.3h-16.6V349h16.5v4.3h-11.7v4.4L198.4,357.7z M214.4,349h10c2.8,0,4.9,0.8,6.4,2.2
	c1.2,1.2,1.9,2.9,1.9,5v0.1c0,3.5-1.9,5.7-4.7,6.8l5.3,7.8h-5.6l-4.7-7h-3.8v7h-4.8V349z M224.1,359.6c2.3,0,3.7-1.3,3.7-3.1v-0.1
	c0-2.1-1.4-3.1-3.8-3.1h-4.8v6.3H224.1z M246.7,367.7l2.8-3.4c2,1.6,4,2.7,6.5,2.7c2,0,3.2-0.8,3.2-2.1v-0.1c0-1.2-0.8-1.8-4.4-2.8
	c-4.4-1.1-7.2-2.3-7.2-6.7v-0.1c0-4,3.2-6.6,7.6-6.6c3.2,0,5.9,1,8.1,2.8l-2.5,3.6c-1.9-1.3-3.8-2.2-5.7-2.2c-1.8,0-2.8,0.8-2.8,1.9
	v0.1c0,1.4,0.9,1.9,4.7,2.9c4.4,1.2,6.9,2.7,6.9,6.6v0.1c0,4.3-3.3,6.8-8,6.8C252.7,371.2,249.3,370,246.7,367.7 M283,353.4h-6.7
	V349h18.1v4.4h-6.6v17.4H283L283,353.4z M307.9,361.5V349h4.8v12.4c0,3.6,1.8,5.4,4.7,5.4c2.9,0,4.7-1.8,4.7-5.2V349h4.8v12.3
	c0,6.6-3.7,9.9-9.6,9.9C311.5,371.2,307.9,367.9,307.9,361.5 M342.1,349h8.5c6.9,0,11.6,4.7,11.6,10.9v0.1c0,6.2-4.7,10.9-11.6,10.9
	h-8.5V349z M350.6,366.5c3.9,0,6.6-2.7,6.6-6.5v-0.1c0-3.9-2.7-6.6-6.6-6.6h-3.7v13.2L350.6,366.5z M376.9,349h4.8v21.9h-4.8
	L376.9,349z M396.4,360L396.4,360c0-6.3,4.9-11.4,11.6-11.4s11.6,5,11.6,11.2v0.1c0,6.2-4.9,11.3-11.6,11.3
	C401.2,371.2,396.4,366.2,396.4,360 M414.6,360L414.6,360c0-3.8-2.7-6.9-6.6-6.9c-3.9,0-6.6,3.1-6.6,6.8v0.1c0,3.7,2.7,6.9,6.6,6.9
	C411.9,366.8,414.6,363.7,414.6,360"/>
<path class="st1" d="M0,314.6v-0.2C0,301.1,10.1,295,24.5,295c6.1,0,10.6,1,14.9,2.5v-1c0-7.1-4.4-11.1-13-11.1
	c-6.6,0-11.2,1.2-16.8,3.3l-4.3-13.2c6.7-2.9,13.3-4.9,23.6-4.9c9.4,0,16.2,2.5,20.5,6.8c4.5,4.5,6.6,11.2,6.6,19.4v35.3H39.3v-6.6
	c-4.2,4.7-10,7.7-18.4,7.7C9.4,333.2,0,326.7,0,314.6 M39.6,310.7v-3.1c-2.9-1.4-6.8-2.3-11-2.3c-7.4,0-11.9,2.9-11.9,8.4v0.2
	c0,4.7,3.9,7.4,9.4,7.4C34.1,321.3,39.6,316.9,39.6,310.7 M67.8,302v-0.2c0-17.4,13.3-31.7,31.9-31.7c11.5,0,18.6,3.9,24.3,10.2
	l-10.6,11.3c-3.9-4.1-7.7-6.7-13.8-6.7c-8.6,0-14.7,7.6-14.7,16.6v0.2c0,9.3,6,16.8,15.4,16.8c5.8,0,9.8-2.5,14-6.5l10.1,10.2
	c-5.9,6.5-12.7,11.1-24.8,11.1C81.2,333.5,67.8,319.4,67.8,302 M138.4,314.9v-28.8h-7.3v-14.7h7.3v-15.5h17.2v15.5h14.3v14.7h-14.3
	v26c0,4,1.7,5.9,5.6,5.9c3.2,0,6-0.8,8.5-2.2v13.8c-3.6,2.2-7.8,3.5-13.6,3.5C145.5,333.1,138.4,328.9,138.4,314.9 M179,314.6v-0.2
	c0-13.3,10.1-19.4,24.5-19.4c6.1,0,10.6,1,14.9,2.5v-1c0-7.1-4.4-11.1-13-11.1c-6.6,0-11.2,1.2-16.8,3.3l-4.3-13.2
	c6.7-2.9,13.3-4.9,23.6-4.9c9.4,0,16.2,2.5,20.5,6.8c4.5,4.5,6.6,11.2,6.6,19.4v35.3h-16.7v-6.6c-4.2,4.7-10,7.7-18.4,7.7
	C188.4,333.2,179,326.7,179,314.6 M218.6,310.7v-3.1c-2.9-1.4-6.8-2.3-11-2.3c-7.4,0-11.9,2.9-11.9,8.4v0.2c0,4.7,3.9,7.4,9.4,7.4
	C213.1,321.3,218.6,316.9,218.6,310.7 M336.8,289.1v0.2c0,13.3-10.1,19.4-24.5,19.4c-6.1,0-10.5-1-14.9-2.5v1
	c0,7.1,4.4,11.1,13,11.1c6.6,0,11.2-1.2,16.8-3.3l4.3,13.2c-6.7,2.9-13.3,4.9-23.6,4.9c-9.4,0-16.2-2.5-20.5-6.8
	c-4.5-4.5-6.6-11.2-6.6-19.4v-35.3h16.7v6.6c4.2-4.7,10-7.7,18.4-7.7C327.3,270.5,336.8,277.1,336.8,289.1 M297.2,293.1v3.1
	c2.9,1.4,6.8,2.3,11,2.3c7.4,0,11.9-2.9,11.9-8.4v-0.2c0-4.7-3.9-7.4-9.4-7.4C302.6,282.4,297.2,286.8,297.2,293.1 M348.5,324.1
	l7.4-11.3c6.6,4.8,13.5,7.3,19.2,7.3c5,0,7.3-1.8,7.3-4.5v-0.2c0-3.7-5.9-5-12.6-7c-8.5-2.5-18.2-6.5-18.2-18.3v-0.2
	c0-12.4,10-19.3,22.2-19.3c7.7,0,16.1,2.6,22.7,7l-6.6,11.9c-6-3.5-12-5.7-16.5-5.7c-4.2,0-6.4,1.8-6.4,4.2v0.2
	c0,3.4,5.8,5,12.4,7.3c8.5,2.8,18.4,6.9,18.4,18v0.2c0,13.5-10.1,19.6-23.3,19.6C366.1,333.2,356.6,330.4,348.5,324.1 M411.9,314.9
	v-28.8h-7.3v-14.7h7.3v-15.5h17.2v15.5h14.3v14.7h-14.3v26c0,4,1.7,5.9,5.6,5.9c3.2,0,6-0.8,8.5-2.2v13.8c-3.6,2.2-7.8,3.5-13.6,3.5
	C419.1,333.1,411.9,328.9,411.9,314.9"/>
<path class="st0" d="M249.7,27.9c0-15.4-12.5-27.9-27.9-27.9c-15.4,0-27.9,12.5-27.9,27.9s12.5,27.9,27.9,27.9
	C237.2,55.9,249.7,43.3,249.7,27.9"/>
<path class="st1" d="M298.1,46.5c-40.7,0-61,16.4-70.7,30c-0.3,0.5-1.6,2.1-3.3,4.5c-2.8-5.2-6.3-9.8-10.4-14
	c-13.4-13.4-33.6-20.5-58.2-20.5c-19.1,0-36.5,3.7-56.2,12.1c-6.8,2.9-10,10.8-7.1,17.6c1.4,3.4,4.1,6,7.5,7.4
	c3.3,1.3,7.1,1.3,10.4-0.2c15-6.7,29.1-9.9,44.4-9.9c23.2,0,50.8,8.1,50.8,46.7l0,7.5l0.3,15v19.5c0,26.8-25.4,47.1-59.2,47.1
	c-21.9,0-44-11.5-44-33.6V175c0-21.5,19-34.3,50.8-34.3c13.2,0,26,1.2,39.2,3.6l6.7,1.3l0.1-6.9c0-3.6,0.1-10.2,0.1-15.2l0-4.8
	l-4.7-0.9c-12.8-2.4-25.6-3.5-40.3-3.5c-49.1,0-80.8,24.2-80.8,61.6v0.7c0,38.7,37.1,59.6,72,59.6c40.7,0,61-16.4,70.7-30
	c0.3-0.4,1.6-2.1,3.3-4.4c2.8,5.2,6.3,9.8,10.4,14c13.4,13.4,33.6,20.5,58.2,20.5c19.1,0,36.5-3.7,56.2-12.1
	c6.8-2.9,10-10.8,7.1-17.6c-1.4-3.4-4.1-6-7.5-7.4c-3.4-1.3-7.1-1.3-10.4,0.2c-15,6.7-29.1,9.9-44.4,9.9c-23.2,0-50.8-8.1-50.8-46.7
	l0-7.5l-0.3-15v-19.5c0-26.8,25.4-47.1,59.2-47.1c21.9,0,44,11.5,44,33.6v0.7c0,21.5-19,34.3-50.8,34.3c-13.2,0-26-1.2-39.2-3.6
	l-6.7-1.3l-0.1,6.9c0,3.6-0.1,10.2-0.1,15.2l0,4.8l4.7,0.9c12.8,2.4,25.6,3.5,40.3,3.5c49.1,0,80.8-24.2,80.8-61.6v-0.7
	C370.1,67.4,333,46.5,298.1,46.5"/>
</svg>
